/* XPM */
static char *_8a6fe7f2ec549aac616853dc7d7f658MxBkQMf9kvYXIR1I[] = {
/* columns rows colors chars-per-pixel */
"16 16 131 2 ",
"   c None",
".  c #855C1A",
"X  c #865C1A",
"o  c #875E1B",
"O  c #885E1C",
"+  c #895F1C",
"@  c #8B611E",
"#  c #8D621F",
"$  c #8E631F",
"%  c #8B6120",
"&  c #8F6420",
"*  c #906420",
"=  c #916521",
"-  c #926621",
";  c #936722",
":  c #946722",
">  c #936625",
",  c #946823",
"<  c #956823",
"1  c #976A26",
"2  c #986B26",
"3  c #996B26",
"4  c #996C26",
"5  c #9A6C26",
"6  c #9A6C27",
"7  c #9B6D27",
"8  c #9C6D27",
"9  c #946928",
"0  c #946A28",
"q  c #996C28",
"w  c #9A6D28",
"e  c #996D2B",
"r  c #9C6D29",
"t  c #9E6F29",
"y  c #9C6F2A",
"u  c #9E6F2A",
"i  c #9D702B",
"p  c #9F702A",
"a  c #9E722E",
"s  c #A06E2C",
"d  c #A16F2D",
"f  c #A0712A",
"g  c #A1712A",
"h  c #A1712B",
"j  c #A2732C",
"k  c #A4732D",
"l  c #A6732F",
"z  c #A3742D",
"x  c #A4742E",
"c  c #A6752E",
"v  c #A7762E",
"b  c #A7762F",
"n  c #A8772F",
"m  c #A87730",
"M  c #A97730",
"N  c #A87631",
"B  c #A97631",
"V  c #A97632",
"C  c #AA7732",
"Z  c #AB7733",
"A  c #A87830",
"S  c #A97931",
"D  c #AA7931",
"F  c #AB7931",
"G  c #AA7932",
"H  c #AB7833",
"J  c #AC7A30",
"K  c #AD7B31",
"L  c #AC7833",
"P  c #AC7933",
"I  c #AD7933",
"U  c #AC7B32",
"Y  c #AD7B33",
"T  c #AE7C33",
"R  c #A87A34",
"E  c #AC7934",
"W  c #AD7934",
"Q  c #AD7A34",
"!  c #AE7A34",
"~  c #AE7A35",
"^  c #AE7C34",
"/  c #AF7C34",
"(  c #AF7D34",
")  c #AF7C35",
"_  c #AC7E37",
"`  c #B07C36",
"'  c #B07D36",
"]  c #B17D36",
"[  c #B17D37",
"{  c #B27F37",
"}  c #B37F37",
"|  c #AD803E",
" . c #AD813E",
".. c #AE813E",
"X. c #B48036",
"o. c #B58136",
"O. c #B48038",
"+. c #B58138",
"@. c #B58139",
"#. c #B88438",
"$. c #B98438",
"%. c #B9843B",
"&. c #BA853C",
"*. c #BC863C",
"=. c #BD873D",
"-. c #BD883D",
";. c #BE893E",
":. c #C0893D",
">. c #C08A3F",
",. c #B18341",
"<. c #B28442",
"1. c #B58744",
"2. c #B78944",
"3. c #B98A45",
"4. c #BC8C48",
"5. c #BC8D48",
"6. c #BE8F4C",
"7. c #BF8F4D",
"8. c #BF904D",
"9. c #C28C41",
"0. c #C68E40",
"q. c #C79044",
"w. c #C1924E",
"e. c #C2924E",
"r. c #C4924D",
"t. c #D89F4D",
"y. c #CA9750",
"u. c #CE9E59",
"i. c #D09D56",
"p. c #D3A15C",
"a. c #ECAC57",
/* pixels */
"            8.5.1.8.            ",
"        ,.i j I z 1 % ..        ",
"    u._ T ] H X.F C } f 0 u.    ",
"    a _ I ~ i t 2 f ~ ~ C 0     ",
"  3.` I I @ . . . . @ ;.I t _   ",
"  i _ ~ 8 * @ O O . . t C _ %   ",
"e.F C ~ 5 * @ : 5 * 1 * E l j 7.",
"5.F F { f . t . . f . s ~ d } r.",
"4.F F b O . } . . X.. @ *.q.*.y.",
"8.z C C k . . v I . . v >.t.*.i.",
"  w X.~ :.* :.a.a.>.< X.s I >   ",
"  2.U ~ ;.I n $.$.K T *.] i ..  ",
"    H _ ~ ~ b 8 2 n ~ _ F 0     ",
"    p.e t ] C &.C Z ] t 0 u.    ",
"        ..% 6 f w w % ..        ",
"            7.,.,.7.            "
};
