/* XPM */
static char *_5218c6afe01403ec0768b8a3cef9c7a7VSH1LTKLax7wOO1[] = {
/* columns rows colors chars-per-pixel */
"32 32 114 2 ",
"   c None",
".  c #855C1A",
"X  c #895E1D",
"o  c #8C611E",
"O  c #8F6320",
"+  c #926622",
"@  c #956924",
"#  c #996C26",
"$  c #966C2C",
"%  c #9C6D2B",
"&  c #9E7129",
"*  c #9E7230",
"=  c #A16F2D",
"-  c #A3732C",
";  c #A8772F",
":  c #A6782E",
">  c #A9792F",
",  c #A67531",
"<  c #AA7732",
"1  c #A77937",
"2  c #AD7A33",
"3  c #A77B3D",
"4  c #AB7D3B",
"5  c #B17D36",
"6  c #B47F38",
"7  c #AC7F40",
"8  c #B48136",
"9  c #B58139",
"0  c #BA853B",
"q  c #BE893E",
"w  c #C18A3E",
"e  c #AF8241",
"r  c #B18443",
"t  c #BC8A44",
"y  c #B78949",
"u  c #B7894A",
"i  c #B58849",
"p  c #BD8F4E",
"a  c #BD8F4E",
"s  c #BE904F",
"d  c #BF904F",
"f  c #BF9151",
"g  c #BE9050",
"h  c #C08B40",
"j  c #C18B40",
"k  c #C38D41",
"l  c #C68E40",
"z  c #C48E42",
"x  c #C48E42",
"c  c #C69043",
"v  c #C79043",
"b  c #C99042",
"n  c #CB9243",
"m  c #C99244",
"M  c #CC9446",
"N  c #CD9546",
"B  c #C99245",
"V  c #C3904D",
"C  c #CE9748",
"Z  c #CF9748",
"A  c #CF9748",
"S  c #D39848",
"D  c #D2994A",
"F  c #D29A4A",
"G  c #D69D4C",
"H  c #D99D4C",
"J  c #C09151",
"K  c #C19250",
"L  c #C69655",
"P  c #C69755",
"I  c #C79756",
"U  c #C59655",
"Y  c #C89856",
"T  c #D29F5A",
"R  c #DBA14F",
"E  c #DBA24F",
"W  c #E6A753",
"Q  c #E7A753",
"!  c #E4A552",
"~  c #E3A955",
"^  c #E9A955",
"/  c #E8AC57",
"(  c #E9A955",
")  c #EAAF58",
"_  c #EFAE58",
"`  c #F0AE59",
"'  c #EEB25A",
"]  c #F2B05A",
"[  c #D4A461",
"{  c #D5A461",
"}  c #D6A461",
"|  c #D7A561",
" . c #D5A462",
".. c #D5A562",
"X. c #D5A461",
"o. c #DDAA64",
"O. c #E5B167",
"+. c #E4B168",
"@. c #E7B26B",
"#. c #E7B36B",
"$. c #E4B26C",
"%. c #E5B36C",
"&. c #E4B26D",
"*. c #E4B36D",
"=. c #E6B36C",
"-. c #E7B36C",
";. c #E6B36D",
":. c #E6B46D",
">. c #E6B36B",
",. c #EBB66E",
"<. c #EAB76E",
"1. c #EBB76E",
"2. c #E9B66D",
"3. c #ECB86F",
/* pixels */
"                            *.*.*.:.                            ",
"                    1...a e 8 & & $ 7 f | 3.                    ",
"                :.U , & & + - # # . . . . $ U =.                ",
"              ..* o @ # 2 2 0 0 5 t 2 , o . . $  .              ",
"          O.f & 5 - 5 q 5 ; ; > < < < 2 z 2 + . X K +.          ",
"        +.y - 8 < w ; < < ; 5 A 2 < < < 2 2 9 5 . . y +.        ",
"        f & : 2 5 < < < 9 5 > 8 > 5 5 5 2 < < 2 9 X . f         ",
"      [ o @ 5 8 5 < 5 5 + . . . . . . # 5 2 2 0 2 5 . X ..      ",
"    =.* 2 8 9 < < 5 & . . . . . . . . . . : 0 H 2 6 , . $ =.    ",
"    U > & q < < 9 < . . . . . . . . . . . . 2 0 < < k o . U     ",
"  <.$ : 6 < < 2 9 . . . . . . . . . . . . . X 5 < < , q . $ <.  ",
"  ..: + q < 2 5 2 . o - - o o o o . . . . . . 2 , 2 2 6 o . ..  ",
"  K > 2 8 < 2 2 : . - . . # - = - : = # # + . - 2 2 , 5 - . a   ",
"  e # 5 < < 2 2 > + + . . . . . + o . . . = . - 6 = , @ q + 7   ",
"+.1 & 0 < < 5 6 8 = . . . . . . . . . . . X = ; 6 = = = k % r @.",
":.1 @ 0 < 2 8 9 + # . . # S . . . . w > . . # = 6 , % , A , 6 +.",
"*., @ 5 2 2 , 5 . . . . > ( . . . . H 0 . . . . 5 ; 5 5 b 5 0 =.",
"=.< % k < 2 @ 6 + . . . O 5 . o . . > # . . . o 5 Q ) S c < t +.",
"  r # 5 < < < - 8 o . . . . X w w + . . . . . w > ] ] E D 6 V   ",
"  a = - < 2 2 2 2 = . . . . X w w o . . . . @ w 2 w S n k 2 T   ",
"  ..+ + w 2 2 5 w 2 o . X - Q Q _ Q 8 X . . 8 5 < = % 0 % @ o.  ",
"  <.& - 5 2 < 5 w A O > ! ` ` ] ] ] ] Q w o w 5 < X - 0 . $ <.  ",
"    Y - # 9 5 > 8 w 2 - 5 ! ! ` _ ! _ 8 - 5 5 5 B = 0 O . U     ",
"    =.* 5 5 ; 5 S 2 8 > . X X o o . o . - 8 w w 2 2 2 . $ :.    ",
"      ..% : 0 2 5 , 2 5 5 X X . . . X 5 6 2 5 9 < t . X [       ",
"        s & - 8 5 < < 2 2 0 5 5 ; 5 5 5 < 2 2 2 q . . a         ",
"        +.s # . , k , 2 2 2 6 H - , < < 2 < 9 2 . . i +.        ",
"          +.g X . o q 9 5 , < < 2 < < 2 9 q O . X a @.          ",
"              ..$ . . X - 0 5 t 6 5 w = o . . $ ..              ",
"                <.U $ . . . . . . . . . . $ U <.                ",
"                    3...a 3 $ @ + $ 3 a ..3.                    ",
"                            <.:.;.<.                            "
};
