/* XPM */
static char *_2ce069a1b8f47a59888b33da88fa5d1T2MpZmBcnaWsJyUj[] = {
/* columns rows colors chars-per-pixel */
"64 64 150 2 ",
"   c None",
".  c #855C1A",
"X  c #895D1D",
"o  c #8C611E",
"O  c #8C5F21",
"+  c #8D6221",
"@  c #936523",
"#  c #956924",
"$  c #9A6C26",
"%  c #936729",
"&  c #95692B",
"*  c #9D6C2B",
"=  c #9E7129",
"-  c #9B6E32",
";  c #9D7134",
":  c #A06E2C",
">  c #A3732D",
",  c #A8772E",
"<  c #A6782E",
"1  c #A87A2F",
"2  c #A67431",
"3  c #A97632",
"4  c #AD7A34",
"5  c #A37638",
"6  c #A5793C",
"7  c #A87B3F",
"8  c #B17D36",
"9  c #B37F38",
"0  c #B48236",
"q  c #B68239",
"w  c #BB853B",
"e  c #BD893D",
"r  c #C0873D",
"t  c #C28B3E",
"y  c #C1903F",
"u  c #AF8347",
"i  c #B18447",
"p  c #B88542",
"a  c #BE8A43",
"s  c #B3864B",
"d  c #B7894E",
"f  c #B88A4F",
"g  c #BB8E52",
"h  c #BF9256",
"j  c #C38D41",
"k  c #C88F42",
"l  c #C08D48",
"z  c #C79144",
"x  c #CB9345",
"c  c #CF9847",
"v  c #C4924E",
"b  c #CE9748",
"n  c #CF9848",
"m  c #D19647",
"M  c #D09749",
"N  c #D39A4B",
"B  c #DA9E4D",
"V  c #C09257",
"C  c #C99754",
"Z  c #CD9C57",
"A  c #C3955A",
"S  c #C3965B",
"D  c #C4965B",
"F  c #C19458",
"G  c #D09F5C",
"H  c #DBA14E",
"J  c #DDA34F",
"K  c #DDA44F",
"L  c #DBA14F",
"P  c #DDA451",
"I  c #DEA451",
"U  c #DAA658",
"Y  c #DAA659",
"T  c #DAA65A",
"R  c #DDA75B",
"E  c #DDA75C",
"W  c #DBA75B",
"Q  c #DDA85B",
"!  c #DFAA5C",
"~  c #DEAA5C",
"^  c #E0A653",
"/  c #E1A753",
"(  c #E2A652",
")  c #E5A953",
"_  c #E6AB56",
"`  c #E5AA55",
"'  c #EAAB56",
"]  c #E1A959",
"[  c #E0A95B",
"{  c #E3AB5B",
"}  c #E7AC58",
"|  c #E2AC5D",
" . c #ECAF59",
".. c #EEAE58",
"X. c #F1AF59",
"o. c #E6B05F",
"O. c #EEB25A",
"+. c #F2B05A",
"@. c #CC9F64",
"#. c #CE9F64",
"$. c #CA9D62",
"%. c #D5A76B",
"&. c #D6A76B",
"*. c #D2A568",
"=. c #D6A96D",
"-. c #D9AB6F",
";. c #DCAC6C",
":. c #E3AE60",
">. c #E6AE61",
",. c #E7B062",
"<. c #E6B162",
"1. c #E6B264",
"2. c #E7B163",
"3. c #E9B263",
"4. c #EEB76B",
"5. c #ECB76D",
"6. c #EDB76D",
"7. c #EEB86C",
"8. c #EFB86C",
"9. c #EFB96C",
"0. c #EFBA6C",
"q. c #EEB96D",
"w. c #F0B96D",
"e. c #F0BA6D",
"r. c #E2B476",
"t. c #E3B477",
"y. c #E2B376",
"u. c #E7B778",
"i. c #E7B879",
"p. c #E8B878",
"a. c #E9B979",
"s. c #E9B97A",
"d. c #EAB97A",
"f. c #E9B879",
"g. c #F1BB70",
"h. c #F1BD73",
"j. c #F2BC72",
"k. c #F2BC73",
"l. c #F0BD74",
"z. c #F1BD74",
"x. c #F2BE75",
"c. c #F1BF77",
"v. c #F2BD74",
"b. c #F1BF78",
"n. c #F1BF79",
"m. c #F2BF78",
"M. c #F1BE7A",
"N. c #F1BE7B",
"B. c #F1BF7B",
"V. c #F1BF7A",
/* pixels */
"                                                                                                                                ",
"                                                  { ,.1.5.l.x.c.c.h.h.5.1.o.]                                                   ",
"                                            | 9.c.i.%.A d 7 ; ; ; 5 7 s h %.p.N.e.!                                             ",
"                                      W 0.n.-.d * X . @ 0 = = = 1 . . . . . O * f -.B.6.U                                       ",
"                                  <.0.i.h & . @ < . . 1 4 e 4 0 e . . . . . . . . . & g f.e.:.                                  ",
"                                0.i.f + = = 1 0 4 = . + @ o . O = . . . . . . . . . . . + g p.6.                                ",
"                            ,.N.h + . o @ 1 q > o X X > 0 4 w b z 3 t q + @ . . . . . . . . @ A B.1.                            ",
"                          9.r.; o $ o @ . @ X X e P j n c 0 1 q 4 > a x q } P 2 * X . . . . . . ; t.9.                          ",
"                      R l.@.+ + 8 0 0 @ X 0 I j r 4 > , 3 4 , , 4 4 3 2 2 2 3 2 ( P : X . . . . . O @.h.R                       ",
"                    U c.g . $ t r > X 0 q x 4 > 3 8 4 4 3 3 , , 3 4 3 3 4 8 4 4 2 4 8 ( 9 X . . . . X g c.U                     ",
"                  U n.s o = e e @ O N B > 2 4 4 3 , 3 3 8 4 B t 4 3 3 3 3 3 , 3 4 4 3 4 N 8 * . . . . . s N.U                   ",
"                R N.s . = e 0 = 9 B : 2 8 4 4 3 3 4 3 , 8 8 +.t 3 q 3 3 3 4 3 3 3 3 4 4 2 3 ` w . . . . . s N.R                 ",
"                l.f . > e = o e B 2 4 4 3 2 4 4 4 4 8 : t y ' y j x x e 8 3 8 4 3 4 > 4 4 4 > k 8 X . . . X g l.                ",
"              9.$.o $ 0 0 o b 0 > 4 8 2 4 4 4 4 9 x r 4 = o o o o X @ > 0 r w 4 4 4 3 4 3 4 4 * M N + . . . X $.9.              ",
"            o.r.o . o 0 X n n = 4 4 4 3 4 4 9 k 4 @ . . . . . . . . . . X . : w w 4 4 4 3 3 8 4 > b 8 X . . . + r.,.            ",
"          ~ n.- o o o X q 0 ; 4 4 4 2 4 4 r 9 o . . . . . . . . . . . . . . . . & r 8 4 4 8 N 9 3 * z x . . . . ; n.!           ",
"          9.A . 1 0 @ e L = 4 4 4 3 3 8 e > . . . . . . . . . . . . . . . . . . . X 8 8 8 0 J m 3 4 > I 4 . . . . A e.          ",
"        ,.i.+ = e 3 # N 2 4 4 4 3 3 8 r # . . . . . . . . . . . . . . . . . . . . . . 1 w x ( m 4 4 4 * a * . . . + p.|         ",
"        l.s o e 0 + N : 4 4 3 3 3 8 k * . . . . . . . . . . . . . . . . . . . . . . . . 8 w t w > 3 4 4 q B X . . . d l.        ",
"      W i.+ < q + w B 2 4 2 3 4 4 e q . . . . . . . . . . . . . . . . . . . . . . . . . X y y 4 4 4 > 4 2 N * X . . O i.W       ",
"      0.h o x 0 X w : 4 4 4 4 4 8 t X . . . . . . . . . . . . . . . . . . . . . . . . . . @ r : 4 4 4 3 4 % B @ . . . h 9.      ",
"      n.% . o o 9 m 3 8 3 3 4 4 8 0 . . . . . o . . . . . . . . . . . . . . . . . . . . . . r , : 4 3 3 4 3 N 9 . . . % B.      ",
"    ~ =.# q $ o B 7 4 3 4 4 4 4 x $ . . . . , w 0 . . . . . . . . . . . . . . . . . . . . . : m : 4 4 4 3 4 3 j X . . . =.|     ",
"    h.s # 0 $ o j 2 4 3 3 3 8 4 r X . . . > 1 . @ r $ . . $ = . . : @ . . . . . . . . . . . X y 4 : 4 3 3 4 : x * . . . s e.    ",
"    B.& 1 0 o a e 3 4 1 4 4 4 4 y . . . o r . . . . 1 r $ r 8 , . 1 0 r 1 $ X . . . . . . . . y 9 * 4 3 3 3 3 j j . . . & N.    ",
"  { i.# < 1 o P 1 4 2 3 4 8 8 3 k . . . 0 o . . . . . o > # . = 0 = , . o , 0 0 w 0 0 X . . . 0 9 3 3 4 4 : 4 : j X . . . u.]   ",
"  3.*.# # $ . j > 8 5 4 4 4 3 4 m . . @ 0 . . . . . . . . . . . o 0 # . . . . . . . $ 1 . . . r 9 4 : 3 3 4 O O b @ . . . %.,.  ",
"  1.h # < @ 2 n 2 4 3 3 3 4 3 j t X . 8 o . . . . . . . . . . . . . . . . . . . . . . 0 o . . t 4 r * 3 : 2 4 : U q : : % h 3.  ",
"  0.u $ e o w b 3 3 3 3 4 8 4 w m @ . 0 . . . . . . . . . . . . . . . . . . . . . . . o 0 . . r 3 p : : : : : @ k 9 % @ : C 9.  ",
"  x.5 < 1 o 4 4 3 3 3 4 9 9 8 q t 8 $ > . . . . . . . . . . . . . . . . . . . . . . . . 8 @ o B 9 9 3 @ : > : 4 j j 3 4 4 p c.  ",
"  c.5 0 1 o w 2 4 3 3 4 9 8 4 k o 0 t o . . . . . $ y 8 . . . . . . . . $ y 8 . . . . . X w 9 > m 3 4 @ & : 8 8 x B 8 8 4 a c.  ",
"  c.- 1 1 . c 0 4 3 4 8 8 8 : j . X @ . . . . . . t +.) . . . . . . X X t +.) X . . . . . : : X k * 3 4 * - * * a B * : * q c.  ",
"  l.- 1 > . z 4 4 3 3 4 4 : 4 9 . . . . . . . . o t +.( . . . . . . . . r +.) o . . . . . . . . t 4 : 3 4 8 4 8 9 j 4 4 8 p N.  ",
"  l.; 1 4 X 8 : 4 3 3 9 : 4 : j . . . . . . . . X t +.( . . . . . . . . r +.) o . . . . . . . . w # 8 8 8 q 9 9 b B 9 9 p l k.  ",
"  x.5 < 4 . j e 4 3 3 3 2 X 4 k o . . . . . . . . 8 X.t . . . . . . . . , ' t o . . . . . . . . t 4 B ( / / U w b N 3 3 4 v k.  ",
"  0.u < 0 o q x 3 3 3 3 2 O 4 9 0 . . . . . . . . . o . . . . . . . . . . o . . . . . . . . . , 9 3 ) O.+.O.O.j j q 3 4 8 G 6.  ",
"  1.F 4 t @ @ q 2 3 3 3 3 4 * 4 0 t . . . . . . . . . . . . $ , , = . . . . . . . . . . . . 8 m w : ) O.O.O.O.j ( p 9 8 4 G 3.  ",
"  3.*.o o . @ ' 2 8 3 3 4 4 4 % , r # . . . . . . . . . . # X.+.+.X.r . . . . . . . . . . X J X * 8 } O.+.O.O.x  .r q q 8 ;.,.  ",
"  | r.. # > X I 3 9 3 3 4 4 9 3 , , , . . . . . . . . . . @ ' +.X.X., o . . . . . . . . . > B * 3 4 ( ) } } _ j B 4 3 4 8 d.{   ",
"    n.& > : . 2 2 3 4 3 4 4 4 4 r 8 t . . . . . . . . . . . o $ # @ . . . . . . . . . . . t k 4 4 8 4 8 q 8 0 M x 8 8 8 a N.    ",
"    g.s > = o = I 2 4 3 3 4 4 8 y m x X . . . . . . . $ B B B B B B B B 8 . . . . . . . . B r 8 4 3 3 3 2 2 3 ) q > : 3 Z e.    ",
"    { =.. . o X ( 3 4 3 4 4 4 4 8 r t , . . . . . X : m +.+.+.+.+.+.+.+.X.8 o . . . . . > m 8 8 4 3 2 . O : @ x X . X X =.:.    ",
"      n.% > e . : 8 3 4 3 3 4 w ( r r m . . . > t ' +.+.+.+.+.+.+.+.+.+.+.+.+.y 0 . . . m 8 9 8 4 2 . O O 2 b 3 . . . % B.      ",
"      e.h + < = + / 3 4 3 4 4 q B 9 3 ' : . : X.+.+.+.+.+.+.+.+.+.+.+.+.+.+.+.+.+.0 . = r 8 8 , 4 2 O O 2 3 ) + . . . g 9.      ",
"      W t.# = 1 o e M > 4 2 2 e m 8 9 ' m . # ( ) x ' +.+.+.+.X.+.+.+.+.+.+.B ) ' = . t r , 8 8 j ] * @ > 8 4 . . . O f.W       ",
"        e.s + 0 = o 0 2 4 4 3 2 8 8 8 9 8 0 . . . . t +.( t ' X.) +.t B +.' o . . . r r 8 8 4 : N 4 9 4 w N X . . . s h.        ",
"        ,.i.+ = w # : { 2 4 4 8 b k 4 8 8 t , . . . X # X . o # o # . . $ @ . . . , t 8 r r = r 4 4 4 : { : . . . + i.:.        ",
"          0.h . q 8 X w j * 4 9 B x 4 4 8 0 y > . . . . . . . . . . . . . . . . , t 0 r K r y ) 9 3 : r : . . . . F 9.          ",
"          { B.; o e 0 . 0 n 2 4 9 8 2 4 4 4 4 w 8 X . . . . . . . . . . . . . 4 r 4 4 8 e 4 M e 3 2 N M X . . . - d.{           ",
"            1.r.+ $ e = o n z * 4 4 3 3 4 4 4 4 j x # . . . . . . . . . . * x j 8 4 3 4 4 3 4 4 2 3 x O . . . O r.3.            ",
"              9.$.. < < = + 4 j : 4 8 2 4 3 4 4 4 8 j k 4 @ X X X X # 3 r w 4 4 3 4 3 4 2 4 4 > M j O . . . . $.0.              ",
"                c.f . 0 q = + n B * 4 4 4 3 3 3 4 4 4 8 e k B I k y k 9 4 3 9 4 3 4 3 4 4 4 * j M O . . . . f c.                ",
"                ! c.u < y o . . 4 r q 2 4 4 3 3 3 4 3 8 8 9 N ' 4 4 4 3 3 3 3 3 3 3 4 4 2 q { * X . . . . u N.~                 ",
"                  ~ N.i o o . . . : I M % 3 4 4 3 2 3 3 9 9 M ] 9 @ : 3 3 4 3 3 4 4 3 3 8 B > . . . . X i d.~                   ",
"                    ~ N.g . . . . . X : B N 3 > 4 4 4 4 3 4 3 3 3 : 3 3 3 4 4 3 2 % N ( 2 X . . . X . d N.~                     ",
"                      ! h.$.+ . . . . . + w p b j 2 : 3 3 3 4 4 4 4 4 3 3 2 @ j ( j 4 + . . . . . O $.l.!                       ",
"                          e.y.- . . . . . . . > z j M L j 3 q 8 : 9 r 2 B ..j w > X . . . . . . ; r.e.                          ",
"                            1.N.A + . . . . . . . . @ 2 4 4 x x 8 x j : : @ X . . . . . . . + h N.1.                            ",
"                              { 9.p.s O . . . . . . . . . . . X . . . . . . . . . . . . o s i.9.~                               ",
"                                  ,.h.u.g % . . . . . . . . . . . . . . . . . . . . % h u.l.,.                                  ",
"                                      ! 9.B.=.s & X . . . . . . . . . . . . X & s %.n.e.~                                       ",
"                                            :.g.N.u.%.V i 6 - - - - 6 i h *.t.N.h.|                                             ",
"                                                  } ,.3.g.c.k.k.c.c.h.e.4.3.{                                                   ",
"                                                                                                                                "
};
